<svg width="39" height="39" viewBox="0 0 39 39" fill="none" xmlns="http://www.w3.org/2000/svg">
<circle cx="19.5" cy="19.5" r="19" fill="white" stroke="#BB3024"/>
<path fill-rule="evenodd" clip-rule="evenodd" d="M25.2178 15.2C25.2887 15.2591 25.3465 15.3311 25.388 15.4117C25.4294 15.4923 25.4536 15.5799 25.4592 15.6695C25.4647 15.7591 25.4515 15.8488 25.4203 15.9335C25.3891 16.0182 25.3406 16.0962 25.2775 16.1628L17.8027 24.0637C17.7393 24.1306 17.6625 24.1848 17.5768 24.2231C17.4911 24.2613 17.3983 24.2829 17.3037 24.2866C17.2092 24.2903 17.1148 24.2759 17.0262 24.2444C16.9375 24.2128 16.8564 24.1648 16.7875 24.103L12.4621 20.2253C12.3324 20.1073 12.2538 19.9473 12.242 19.7768C12.2301 19.6063 12.2858 19.4377 12.3981 19.3045C12.4588 19.2322 12.5342 19.1725 12.6198 19.1288C12.7054 19.0852 12.7994 19.0586 12.8961 19.0506C12.9929 19.0426 13.0903 19.0534 13.1825 19.0824C13.2747 19.1114 13.3598 19.1579 13.4326 19.2192L16.7882 22.0941C16.9283 22.2142 17.1128 22.2764 17.301 22.267C17.4892 22.2576 17.6659 22.1774 17.792 22.044L24.221 15.2548C24.3462 15.1227 24.5209 15.0428 24.7074 15.0324C24.894 15.022 25.0773 15.082 25.2178 15.1993V15.2Z" fill="#BB3024"/>
</svg>
